<svg width="25" height="25" viewBox="0 0 25 25" fill="none" xmlns="http://www.w3.org/2000/svg">
<path fill-rule="evenodd" clip-rule="evenodd" d="M12.6257 0.143799C5.99832 0.143799 0.625732 5.51638 0.625732 12.1438C0.625732 18.7712 5.99832 24.1438 12.6257 24.1438C19.2531 24.1438 24.6257 18.7712 24.6257 12.1438C24.6257 5.51638 19.2531 0.143799 12.6257 0.143799ZM9.98737 5.78247C10.67 5.7514 10.8882 5.7438 12.6263 5.7438H12.6243C14.363 5.7438 14.5804 5.7514 15.263 5.78247C15.9444 5.81367 16.4097 5.92153 16.8177 6.0798C17.239 6.24314 17.5951 6.46181 17.9511 6.81781C18.3071 7.17355 18.5257 7.53062 18.6897 7.95156C18.8471 8.35849 18.9551 8.82356 18.9871 9.5049C19.0177 10.1876 19.0257 10.4057 19.0257 12.1439C19.0257 13.882 19.0177 14.0996 18.9871 14.7823C18.9551 15.4634 18.8471 15.9286 18.6897 16.3356C18.5257 16.7564 18.3071 17.1135 17.9511 17.4693C17.5955 17.8253 17.2389 18.0445 16.8181 18.2079C16.4109 18.3662 15.9453 18.4741 15.264 18.5053C14.5813 18.5363 14.3638 18.5439 12.6255 18.5439C10.8875 18.5439 10.6695 18.5363 9.98684 18.5053C9.30563 18.4741 8.84043 18.3662 8.43322 18.2079C8.01255 18.0445 7.65548 17.8253 7.29988 17.4693C6.94401 17.1135 6.72534 16.7564 6.56174 16.3355C6.4036 15.9286 6.29573 15.4635 6.2644 14.7822C6.23347 14.0995 6.22573 13.882 6.22573 12.1439C6.22573 10.4057 6.23373 10.1874 6.26427 9.50477C6.29493 8.8237 6.40293 8.35849 6.5616 7.95142C6.7256 7.53062 6.94427 7.17355 7.30028 6.81781C7.65601 6.46194 8.01308 6.24327 8.43402 6.0798C8.84096 5.92153 9.30603 5.81367 9.98737 5.78247Z" fill="#2A90D9"/>
<path fill-rule="evenodd" clip-rule="evenodd" d="M12.0522 6.89711C12.1637 6.89693 12.2836 6.89699 12.413 6.89705L12.6264 6.89711C14.3352 6.89711 14.5377 6.90324 15.2125 6.93391C15.8365 6.96244 16.1752 7.06671 16.4008 7.15431C16.6995 7.27031 16.9124 7.40898 17.1363 7.63298C17.3603 7.85698 17.4989 8.07032 17.6152 8.36899C17.7028 8.59433 17.8072 8.933 17.8356 9.557C17.8663 10.2317 17.8729 10.4343 17.8729 12.1424C17.8729 13.8504 17.8663 14.053 17.8356 14.7277C17.8071 15.3517 17.7028 15.6904 17.6152 15.9157C17.4992 16.2144 17.3603 16.4271 17.1363 16.6509C16.9123 16.8749 16.6996 17.0136 16.4008 17.1296C16.1755 17.2176 15.8365 17.3216 15.2125 17.3502C14.5378 17.3808 14.3352 17.3875 12.6264 17.3875C10.9174 17.3875 10.7149 17.3808 10.0402 17.3502C9.41619 17.3214 9.07752 17.2171 8.85179 17.1295C8.55312 17.0135 8.33978 16.8748 8.11578 16.6508C7.89178 16.4268 7.75311 16.214 7.63684 15.9152C7.54924 15.6899 7.44484 15.3512 7.41644 14.7272C7.38577 14.0525 7.37964 13.8498 7.37964 12.1408C7.37964 10.4317 7.38577 10.2301 7.41644 9.5554C7.44497 8.9314 7.54924 8.59273 7.63684 8.36712C7.75284 8.06845 7.89178 7.85512 8.11578 7.63112C8.33978 7.40711 8.55312 7.26845 8.85179 7.15218C9.07739 7.06418 9.41619 6.96018 10.0402 6.93151C10.6306 6.90484 10.8594 6.89684 12.0522 6.89551V6.89711ZM16.0427 7.95979C15.6187 7.95979 15.2747 8.30339 15.2747 8.72753C15.2747 9.15153 15.6187 9.49553 16.0427 9.49553C16.4667 9.49553 16.8107 9.15153 16.8107 8.72753C16.8107 8.30352 16.4667 7.95952 16.0427 7.95952V7.95979ZM9.33966 12.1438C9.33966 10.3288 10.8112 8.8572 12.6262 8.85713C14.4413 8.85713 15.9125 10.3287 15.9125 12.1438C15.9125 13.9589 14.4414 15.4299 12.6264 15.4299C10.8113 15.4299 9.33966 13.9589 9.33966 12.1438Z" fill="#2A90D9"/>
<path d="M12.6263 10.0105C13.8044 10.0105 14.7596 10.9656 14.7596 12.1439C14.7596 13.322 13.8044 14.2772 12.6263 14.2772C11.448 14.2772 10.4929 13.322 10.4929 12.1439C10.4929 10.9656 11.448 10.0105 12.6263 10.0105Z" fill="#2A90D9"/>
</svg>
