<svg width="25" height="25" viewBox="0 0 25 25" fill="none" xmlns="http://www.w3.org/2000/svg">
<path fill-rule="evenodd" clip-rule="evenodd" d="M12.6257 0.143799C5.99832 0.143799 0.625732 5.51638 0.625732 12.1438C0.625732 18.7712 5.99832 24.1438 12.6257 24.1438C19.2531 24.1438 24.6257 18.7712 24.6257 12.1438C24.6257 5.51638 19.2531 0.143799 12.6257 0.143799ZM9.01961 6.1438C9.05512 6.17196 9.08328 6.17196 9.11145 6.16829C9.25716 6.15604 9.38206 6.19155 9.46288 6.32503C9.47714 6.34815 9.49141 6.37127 9.50568 6.39439C9.67276 6.6652 9.84015 6.93649 9.99922 7.21402C10.1144 7.41466 10.2242 7.61855 10.3342 7.82265C10.4148 7.97232 10.4955 8.12209 10.5784 8.27077C10.6105 8.33104 10.6506 8.3878 10.6907 8.44458C10.7133 8.47663 10.736 8.50869 10.7572 8.54139C10.8083 8.62274 10.8572 8.70629 10.905 8.78786L10.9127 8.80099C11.0156 8.99568 11.0107 9.19161 10.8576 9.34712C10.6965 9.51186 10.5233 9.66791 10.3505 9.82366C10.2895 9.87861 10.2286 9.93352 10.1682 9.98876C10.0932 10.0576 10.017 10.1254 9.94093 10.1931C9.82081 10.3 9.70078 10.4068 9.58533 10.5178C9.43839 10.6598 9.40043 10.8373 9.49962 11.0247C9.5088 11.0419 9.51798 11.0591 9.52716 11.0763C9.67096 11.3456 9.81459 11.6146 9.97228 11.8782C10.5943 12.9153 11.389 13.797 12.3931 14.4766C12.7801 14.7399 13.1829 14.9811 13.5895 15.2113C13.9728 15.428 14.1221 15.3913 14.4197 15.0595C14.5769 14.8849 14.7309 14.7088 14.8851 14.5324C15.0024 14.3982 15.1199 14.2639 15.2389 14.1301C15.305 14.0554 15.3846 13.9892 15.4618 13.9256C15.6185 13.7933 15.7899 13.7786 15.9699 13.8692C15.9812 13.8747 15.9927 13.8801 16.0042 13.8855C16.0439 13.9041 16.0839 13.9229 16.1181 13.9476C16.4374 14.176 16.7819 14.3596 17.1259 14.5429C17.2965 14.6337 17.4669 14.7245 17.634 14.8207C17.8064 14.9197 17.9758 15.0232 18.1447 15.1265C18.241 15.1853 18.3372 15.2441 18.4336 15.3019C18.5769 15.3864 18.6345 15.5101 18.6247 15.6803C18.5977 16.1591 18.5181 16.6293 18.2402 17.0334C18.1238 17.2011 17.9585 17.3481 17.792 17.4668C17.3304 17.7901 16.8148 17.9897 16.2663 18.1122C15.7679 18.2236 15.2707 18.1832 14.7932 18.0338C13.8711 17.7497 12.9625 17.424 12.1262 16.9305C11.367 16.4811 10.6764 15.9387 10.0372 15.3325C9.22778 14.5623 8.50532 13.7223 7.92122 12.766C7.5404 12.1451 7.26856 11.4765 7.02243 10.7945C6.87304 10.3831 6.7261 9.97529 6.65998 9.53937C6.58406 9.04589 6.63671 8.57078 6.79467 8.10302C6.93672 7.68056 7.11427 7.27647 7.38244 6.91524C7.59306 6.63483 7.85633 6.42911 8.19674 6.33727C8.38908 6.28638 8.58264 6.24278 8.77614 6.1992C8.85734 6.18091 8.93853 6.16262 9.01961 6.1438Z" fill="#2A90D9"/>
</svg>
