<svg width="25" height="25" viewBox="0 0 25 25" fill="none" xmlns="http://www.w3.org/2000/svg">
<path fill-rule="evenodd" clip-rule="evenodd" d="M0.625732 12.1438C0.625732 18.7712 5.99832 24.1438 12.6257 24.1438C19.2531 24.1438 24.6257 18.7712 24.6257 12.1438C24.6257 5.51638 19.2531 0.143799 12.6257 0.143799C5.99832 0.143799 0.625732 5.51638 0.625732 12.1438ZM10.4257 17.6438L10.6299 14.5849L10.6297 14.5848L16.1942 9.5633C16.4384 9.34656 16.1409 9.24087 15.8167 9.43746L8.94937 13.77L5.98307 12.8441C5.34248 12.648 5.33788 12.2078 6.12689 11.8913L17.6859 7.43423C18.2138 7.19455 18.7234 7.56103 18.5218 8.36905L16.5533 17.6453C16.4159 18.3045 16.0176 18.4622 15.4657 18.1577L12.4671 15.9423L11.0257 17.3438C11.0212 17.3482 11.0167 17.3526 11.0122 17.357C10.851 17.5139 10.7176 17.6438 10.4257 17.6438Z" fill="#2A90D9"/>
</svg>
