<svg width="25" height="25" viewBox="0 0 25 25" fill="none" xmlns="http://www.w3.org/2000/svg">
<path fill-rule="evenodd" clip-rule="evenodd" d="M12.6257 0.143799C5.99832 0.143799 0.625732 5.51638 0.625732 12.1438C0.625732 18.7712 5.99832 24.1438 12.6257 24.1438C19.2531 24.1438 24.6257 18.7712 24.6257 12.1438C24.6257 5.51638 19.2531 0.143799 12.6257 0.143799ZM17.6265 8.01846C18.1773 8.1696 18.611 8.61491 18.7582 9.18041C19.0257 10.2053 19.0257 12.3438 19.0257 12.3438C19.0257 12.3438 19.0257 14.4822 18.7582 15.5072C18.611 16.0727 18.1773 16.518 17.6265 16.6692C16.6284 16.9438 12.6257 16.9438 12.6257 16.9438C12.6257 16.9438 8.62304 16.9438 7.62486 16.6692C7.0741 16.518 6.64035 16.0727 6.49315 15.5072C6.22573 14.4822 6.22573 12.3438 6.22573 12.3438C6.22573 12.3438 6.22573 10.2053 6.49315 9.18041C6.64035 8.61491 7.0741 8.1696 7.62486 8.01846C8.62304 7.7438 12.6257 7.7438 12.6257 7.7438C12.6257 7.7438 16.6284 7.7438 17.6265 8.01846Z" fill="#2A90D9"/>
<path d="M11.4258 14.5437V10.5437L14.6258 12.5438L11.4258 14.5437Z" fill="#2A90D9"/>
</svg>
